<svg width="980" height="420" viewBox="0 0 980 420" fill="none" xmlns="http://www.w3.org/2000/svg">
  <rect width="980" height="420" rx="28" fill="#F8FAFC"/>
  <text x="72" y="52" fill="#64748B" font-family="Inter, Arial, sans-serif" font-size="22" font-weight="600">
    Концепт. Только боковая стопка карточек в букве I и одна карта, выходящая к слову Cards
  </text>

  <g transform="translate(120 122)">
    <text x="0" y="94" fill="#111111" font-family="Inter, Arial, sans-serif" font-size="88" font-weight="700" letter-spacing="-3">
      A
    </text>

    <g transform="translate(78 10)">
      <rect x="0" y="8" width="26" height="102" rx="8" fill="#CBD5E1"/>
      <rect x="4" y="6" width="26" height="102" rx="8" fill="#D7DEE8"/>
      <rect x="8" y="4" width="26" height="102" rx="8" fill="#E2E8F0"/>
      <rect x="12" y="2" width="26" height="102" rx="8" fill="#EEF2F7"/>
      <rect x="16" y="0" width="26" height="102" rx="8" fill="#FFFFFF" stroke="#D1D5DB" stroke-width="2"/>
    </g>

    <rect x="150" y="12" width="80" height="100" rx="14" transform="rotate(18 150 12)" fill="#FFFFFF" stroke="#D1D5DB" stroke-width="2"/>
    <path d="M173 78L193 64L204 82L188 97L173 78Z" fill="#111111" fill-opacity="0.08"/>

    <path d="M122 48C140 50 153 58 164 69" stroke="#94A3B8" stroke-width="4" stroke-linecap="round" stroke-dasharray="8 10"/>

    <text x="242" y="94" fill="#111111" font-family="Inter, Arial, sans-serif" font-size="88" font-weight="700" letter-spacing="-3">
      Cards
    </text>
  </g>
</svg>
