<svg width="980" height="420" viewBox="0 0 980 420" fill="none" xmlns="http://www.w3.org/2000/svg">
  <rect width="980" height="420" rx="28" fill="#F8FAFC"/>
  <text x="72" y="52" fill="#64748B" font-family="Inter, Arial, sans-serif" font-size="22" font-weight="600">
    Концепт. AI как стопка карточек, одна карточка падает на слово Cards
  </text>

  <g transform="translate(94 92)">
    <rect x="32" y="28" width="122" height="156" rx="24" transform="rotate(-10 32 28)" fill="#E2E8F0"/>
    <rect x="58" y="18" width="126" height="162" rx="24" transform="rotate(-4 58 18)" fill="#F1F5F9" stroke="#CBD5E1" stroke-width="2"/>
    <rect x="86" y="34" width="132" height="168" rx="26" fill="white" stroke="#D1D5DB" stroke-width="2"/>

    <text x="153" y="136" text-anchor="middle" fill="#111111" font-family="Inter, Arial, sans-serif" font-size="64" font-weight="700" letter-spacing="-2">
      AI
    </text>

    <rect x="230" y="78" width="126" height="164" rx="24" transform="rotate(17 230 78)" fill="white" stroke="#D1D5DB" stroke-width="2"/>
    <path d="M278 143L308 123L320 146L298 164L278 143Z" fill="#111111" fill-opacity="0.08"/>

    <text x="324" y="154" fill="#111111" font-family="Inter, Arial, sans-serif" font-size="76" font-weight="700" letter-spacing="-2.2">
      Cards
    </text>

    <path d="M240 88C250 102 264 112 282 117" stroke="#94A3B8" stroke-width="4" stroke-linecap="round" stroke-dasharray="8 10"/>
  </g>
</svg>
